<svg width="61" height="60" viewBox="0 0 61 60" xmlns="http://www.w3.org/2000/svg"><title>Group 5</title><g fill="none" fill-rule="evenodd"><circle fill="#F4F5FA" cx="30" cy="30" r="30"/><g fill="#464855" fill-rule="nonzero"><path d="M40 28.98v-4.653C40 23.042 38.997 22 37.76 22H24.24C23.004 22 22 23.042 22 24.327v4.654c0 1.285 1.003 2.326 2.24 2.326-1.237 0-2.24 1.042-2.24 2.327v4.654c0 1.285 1.003 2.327 2.24 2.327-1.237 0-2.24 1.042-2.24 2.327v4.731C22 48.958 23.003 50 24.24 50h13.52c1.237 0 2.24-1.042 2.24-2.327v-4.731c0-1.285-1.003-2.327-2.24-2.327 1.237 0 2.24-1.042 2.24-2.327v-4.654c0-1.285-1.003-2.327-2.24-2.327 1.237 0 2.24-1.041 2.24-2.326zM37 20l-2.916-5.115c.438-.157.761-.61.761-1.166v-2.48c0-.685-.482-1.239-1.077-1.239h-6.536c-.595 0-1.077.554-1.077 1.24v2.479c0 .556.323 1.009.76 1.166L24 20h13z"/></g><path fill="#FFF" d="M56.588.504l3.656 3.41L8.412 59.496l-3.656-3.41z"/></g></svg>