<svg width="31" height="29" viewBox="0 0 31 29" xmlns="http://www.w3.org/2000/svg"><title>icon / chat</title><g fill="#000" fill-rule="evenodd"><path d="M31 10.271C31 4.633 26.417.045 20.784.045H10.216C4.583.045 0 4.632 0 10.271v2.792c0 4.398 2.795 8.292 6.954 9.689l.409.137-.216.373c-.555.958-1.309 2.463-2.304 4.6a.68.68 0 0 0 .133.764.689.689 0 0 0 .761.139l11.97-5.476h3.077C26.417 23.29 31 18.702 31 13.064V10.27zm-1.356 2.792c0 4.891-3.974 8.87-8.86 8.87H17.56a.682.682 0 0 0-.281.062L6.868 26.758l.45-.896c.412-.818 1.156-2.261 1.514-2.728l.04-.052.058-.035a.678.678 0 0 0-.234-1.248 8.854 8.854 0 0 1-7.34-8.736v-2.792c0-4.891 3.974-8.87 8.86-8.87h10.568c4.886 0 8.86 3.979 8.86 8.87v2.792z"/><path d="M7.562 9.909a1.928 1.928 0 0 0-1.926 1.925c0 1.063.864 1.926 1.926 1.926a1.928 1.928 0 0 0 1.925-1.926A1.928 1.928 0 0 0 7.562 9.91zM23.766 9.909a1.928 1.928 0 0 0-1.925 1.925c0 1.063.864 1.926 1.925 1.926a1.928 1.928 0 0 0 1.926-1.926 1.927 1.927 0 0 0-1.926-1.925zM15.312 9.909a1.928 1.928 0 0 0-1.926 1.925c0 1.063.864 1.926 1.926 1.926a1.928 1.928 0 0 0 1.925-1.926 1.928 1.928 0 0 0-1.925-1.925z"/></g></svg>