<svg width="64" height="60" viewBox="0 0 64 60" xmlns="http://www.w3.org/2000/svg"><title>Group 3</title><g fill="none" fill-rule="evenodd"><circle fill="#F4F5FA" cx="30" cy="30" r="30"/><g fill="#464855" fill-rule="nonzero"><path d="M35.422 49.357l1.207 1.207c.513.513 1.34.519 1.846.013l12.31-12.309c.505-.505.499-1.334-.014-1.846l-1.207-1.208-14.142 14.143zM25.884 9.609c-.638.639-.647 1.67-.02 2.297l2.687 2.686 4.952 4.952a1.26 1.26 0 0 1-.016 1.782 1.26 1.26 0 0 1-1.782.016l-4.952-4.952-2.686-2.687-1.526-1.525c-.627-.628-1.658-.619-2.296.02-.64.639-.648 1.669-.02 2.297l7.624 7.623 1.54 1.54a1.26 1.26 0 0 1-.016 1.783 1.26 1.26 0 0 1-1.782.015l-1.54-1.54-7.624-7.624-1.32-1.32c-.628-.628-1.658-.62-2.297.02-.639.638-.648 1.669-.02 2.297l1.32 1.32 7.413 7.413 1.751 1.75a1.26 1.26 0 0 1-.015 1.783 1.26 1.26 0 0 1-1.782.015l-1.751-1.75-7.413-7.413c-.628-.628-1.658-.62-2.297.02-.639.638-.647 1.668-.02 2.296l7.683 7.683 1.993 1.993 3.35 3.35a1.26 1.26 0 0 1-.015 1.782 1.26 1.26 0 0 1-1.782.016l-3.35-3.35-1.994-1.994a1.804 1.804 0 0 0-1.305-.53 1.867 1.867 0 0 0-1.313.558c-.35.354-.545.82-.547 1.314-.002.494.189.955.537 1.3l8.436 8.35a8.006 8.006 0 0 0 3.726 2.083l4.716 1.156c.22.054.42.167.58.326l1.524 1.524 13.867-13.868-1.524-1.524a1.232 1.232 0 0 1-.31-.525l-1.369-4.67a8.02 8.02 0 0 0-2.018-3.408l-14.7-14.7c-.628-.628-1.658-.619-2.297.02z"/></g><path fill="#FFF" d="M59.588.504l3.656 3.41-51.832 55.582-3.656-3.41z"/></g></svg>