<svg width="60" height="60" viewBox="0 0 60 60" xmlns="http://www.w3.org/2000/svg"><title>Group 4</title><g fill="none" fill-rule="evenodd"><circle fill="#F4F5FA" cx="30" cy="30" r="30"/><path d="M11.192 24.615l2.316 1.832-2.18 4.229c-1.09 1.95.783 3.849 1.976 4.51 1.174.65 2.997.728 4.7.705l3.066-5.074 2.316 1.268-4.02-7.54-8.174.07zm.34 10.35l4.974 9.303c.999 1.292 2.883 1.597 4.836 1.55h5.246V37.01l-9.946-.07c-1.544.094-3.565-.235-5.11-1.973zM42.82 17.823l-2.705 1.163-2.596-3.98c-1.156-1.91-3.704-1.173-4.854-.437-1.131.724-2.082 2.301-2.887 3.82l2.897 5.175L30.455 25l8.462.097 3.902-7.274zm-9.106-4.716L23.267 13c-1.6.258-2.778 1.78-3.684 3.532l-2.543 4.645 7.61 4.27 4.882-8.773c.667-1.413 1.931-3.043 4.181-3.568zM34.168 49l.307-2.96 4.697-.369c2.21-.097 2.809-2.711 2.73-4.086-.077-1.353-.978-2.96-1.9-4.41l-5.874.057-.165-2.66-4.186 7.446L34.167 49zm8.488-5.777l5.156-9.2c.553-1.542-.19-3.323-1.264-4.975l-2.78-4.504-7.378 4.669 5.212 8.577c.897 1.276 1.692 3.186 1.054 5.433z" fill="#464855" fill-rule="nonzero"/></g></svg>